# xmcd
#
# Track frame offsets: 
#        150
#        18548
#        32195
#        50923
#        65762
#        80159
#        96818
#        109747
#        129030
#        140297
#        152024
#        165427
#        185944
#        214154
#        225408
#
# Disc length: 3331 seconds
#
# Revision: 0
# Processed by: cddbd v1.5.2PL0 Copyright (c) Steve Scherf et al.
# Submitted via: ExactAudioCopy v0.95b4
#
DISCID=d00d010f
DTITLE=Ronan Drury - Something different
DYEAR=2010
DGENRE=Pop-Folk
TTITLE0=brown-eyed girl
TTITLE1=shoals of herring
TTITLE2=red is the rose
TTITLE3=oh carol
TTITLE4=sound of silence
TTITLE5=the irish rover
TTITLE6=lord of the dance
TTITLE7=the dutchman
TTITLE8=folsom prison blues
TTITLE9=blarney roses
TTITLE10=past the point of rescue
TTITLE11=coward of the county
TTITLE12=green fields of france
TTITLE13=westering home
TTITLE14=hotel california
EXTD=
EXTT0=
EXTT1=
EXTT2=
EXTT3=
EXTT4=
EXTT5=
EXTT6=
EXTT7=
EXTT8=
EXTT9=
EXTT10=
EXTT11=
EXTT12=
EXTT13=
EXTT14=
PLAYORDER=
